<svg width="222" height="45" fill="none" xmlns="http://www.w3.org/2000/svg"><path d="M28.914 5.126c0 .413-.207.62-.62.62H6.284c-.165 0-.248.083-.248.248v13.33c0 .165.083.248.248.248h15.128c.413 0 .62.207.62.62v3.906c0 .413-.207.62-.62.62H6.284c-.165 0-.248.083-.248.248v13.64c0 .165.083.248.248.248h22.01c.413 0 .62.207.62.62v3.906c0 .413-.207.62-.62.62H.704c-.413 0-.62-.207-.62-.62V1.22C.084.807.291.6.704.6h27.59c.413 0 .62.207.62.62v3.906zM64.543 1.22c0-.413.206-.62.62-.62h4.712c.413 0 .62.207.62.62v42.16c0 .413-.207.62-.62.62h-4.526c-.29 0-.538-.145-.744-.434L45.199 11.884c-.042-.124-.104-.165-.186-.124-.083 0-.124.062-.124.186l.062 31.434c0 .413-.207.62-.62.62h-4.712c-.414 0-.62-.207-.62-.62V1.22c0-.413.206-.62.62-.62h4.588c.289 0 .537.145.744.434l19.344 31.682c.041.124.103.186.186.186.082-.041.124-.124.124-.248L64.543 1.22zM82.529 44c-.413 0-.62-.207-.62-.62V1.22c0-.413.207-.62.62-.62h15.005c4.298 0 7.729 1.137 10.291 3.41 2.563 2.232 3.844 5.229 3.844 8.99v18.6c0 3.761-1.281 6.779-3.844 9.052C105.263 42.884 101.832 44 97.534 44H82.529zm5.333-5.394c0 .165.082.248.248.248h9.671c2.398 0 4.299-.723 5.704-2.17 1.447-1.488 2.191-3.472 2.232-5.952V13.868c0-2.48-.723-4.443-2.17-5.89-1.405-1.488-3.327-2.232-5.766-2.232H88.11c-.165 0-.247.083-.247.248v32.612zm48.249 5.952c-3.018 0-5.684-.62-7.998-1.86-2.315-1.24-4.113-2.976-5.394-5.208-1.282-2.273-1.922-4.877-1.922-7.812V14.922c0-2.935.64-5.518 1.922-7.75 1.281-2.232 3.079-3.968 5.394-5.208 2.314-1.24 4.98-1.86 7.998-1.86 3.058 0 5.745.62 8.06 1.86 2.314 1.24 4.112 2.976 5.394 5.208 1.281 2.232 1.922 4.815 1.922 7.75v14.756c0 2.935-.641 5.539-1.922 7.812-1.282 2.232-3.08 3.968-5.394 5.208-2.315 1.24-5.002 1.86-8.06 1.86zm0-5.146c2.81 0 5.084-.868 6.82-2.604 1.736-1.736 2.604-4.03 2.604-6.882V14.86c0-2.893-.868-5.208-2.604-6.944-1.736-1.777-4.01-2.666-6.82-2.666-2.811 0-5.084.889-6.82 2.666-1.695 1.736-2.542 4.05-2.542 6.944v15.066c0 2.852.847 5.146 2.542 6.882 1.736 1.736 4.009 2.604 6.82 2.604zM170.724 44c-.372 0-.599-.165-.682-.496L158.386 1.282l-.062-.186c0-.33.207-.496.62-.496h5.022c.372 0 .599.186.682.558l8.122 30.876c.041.083.083.124.124.124.083 0 .145-.041.186-.124l7.688-30.876c.083-.372.31-.558.682-.558h4.898c.372 0 .599.186.682.558l8.122 30.938c.041.083.083.124.124.124.041 0 .083-.041.124-.124l8.184-30.938c.083-.372.31-.558.682-.558h4.712c.207 0 .351.062.434.186.124.124.165.29.124.496l-11.222 42.16c-.083.372-.31.558-.682.558h-4.774c-.372 0-.599-.186-.682-.558l-8.122-31.992c-.041-.124-.083-.186-.124-.186-.041 0-.083.062-.124.186l-7.874 31.992c-.041.372-.269.558-.682.558h-4.526zm47.018 0c-1.157 0-2.108-.372-2.852-1.116-.744-.744-1.116-1.695-1.116-2.852 0-1.157.372-2.108 1.116-2.852.744-.744 1.695-1.116 2.852-1.116 1.158 0 2.108.372 2.852 1.116.744.744 1.116 1.695 1.116 2.852 0 1.157-.372 2.108-1.116 2.852-.744.744-1.694 1.116-2.852 1.116z" fill="#DB0C26"/></svg>